<svg width="40" height="40" viewBox="0 0 40 40" fill="none" xmlns="http://www.w3.org/2000/svg">
<rect y="3.05176e-05" width="40" height="40" rx="8" fill="#EDF2F5"/>
<path d="M24.8964 14.8644L22.2845 10.7832H22.5362C22.6466 10.7832 22.7362 10.6937 22.7362 10.5832V8.00003C22.7362 7.88957 22.6466 7.80003 22.5362 7.80003H18.1917C18.0813 7.80003 17.9917 7.88957 17.9917 8.00003V10.5832C17.9917 10.6937 18.0813 10.7832 18.1917 10.7832H18.4798L15.8322 14.8633C15.8112 14.8957 15.8 14.9336 15.8 14.9722V18.4736C15.8 19.0363 16.0006 19.5499 16.3184 19.9233C16.003 20.2683 15.8147 20.7578 15.8147 21.2916C15.8147 21.8003 15.9906 22.2666 16.2786 22.6068C15.991 22.9475 15.8184 23.414 15.8184 23.9218C15.8184 24.4545 16.0028 24.9445 16.3179 25.29C16.0001 25.6635 15.8 26.1771 15.8 26.7398V29.7456C15.8 30.8433 16.5701 31.8243 17.5655 31.8243H19.0924C19.363 32.0441 19.6986 32.2 20.0704 32.2H20.6966C21.0685 32.2 21.404 32.0442 21.6747 31.8243H23.2015C24.2028 31.8243 24.9279 30.8362 24.9279 29.7456V26.7398C24.9279 26.1812 24.7447 25.6667 24.4289 25.2909C24.7455 24.947 24.9426 24.4579 24.9426 23.9217C24.9426 23.4142 24.7711 22.9476 24.4835 22.6067C24.7714 22.2663 24.9463 21.7999 24.9463 21.2915C24.9463 20.7545 24.7454 20.2656 24.4284 19.9223C24.7443 19.5466 24.9279 19.0321 24.9279 18.4735V14.9722C24.9279 14.934 24.917 14.8966 24.8964 14.8644ZM22.5753 24.708C22.4649 24.708 22.3753 24.7975 22.3753 24.908V25.6124C22.3753 25.7229 22.4649 25.8124 22.5753 25.8124H23.2015C23.5872 25.8124 23.9409 26.1799 23.9409 26.7396V29.7455C23.9409 30.3167 23.578 30.7197 23.2015 30.7197H22.3665C22.4151 30.524 22.4426 30.3329 22.4426 30.1212C22.4426 30.0108 22.3531 29.9212 22.2426 29.9212H21.6556C21.5451 29.9212 21.4556 30.0108 21.4556 30.1212C21.4556 30.6866 21.0777 31.0954 20.6967 31.0954H20.0704C19.6894 31.0954 19.3115 30.6866 19.3115 30.1212C19.3115 30.0108 19.222 29.9212 19.1115 29.9212H18.5244C18.414 29.9212 18.3244 30.0108 18.3244 30.1212C18.3244 30.3329 18.3519 30.524 18.4006 30.7197H17.5655C17.1799 30.7197 16.7871 30.3053 16.7871 29.7455V26.7396C16.7871 26.1912 17.1702 25.8124 17.5655 25.8124H20.6967C20.8071 25.8124 20.8967 25.7229 20.8967 25.6124V24.908C20.8967 24.7975 20.8071 24.708 20.6967 24.708H17.409C17.1096 24.708 16.8067 24.4013 16.8067 23.9452C16.8067 23.489 17.1096 23.1823 17.409 23.1823H20.6967C20.8071 23.1823 20.8967 23.0928 20.8967 22.9823V22.2779C20.8967 22.1674 20.8071 22.0779 20.6967 22.0779H17.409C17.1096 22.0779 16.8067 21.7712 16.8067 21.3151C16.8067 20.8589 17.1096 20.5522 17.409 20.5522H20.6967C20.8071 20.5522 20.8967 20.4627 20.8967 20.3522V19.6478C20.8967 19.5373 20.8071 19.4478 20.6967 19.4478H17.5655C17.1799 19.4478 16.7871 19.0334 16.7871 18.4736V15.6678H23.9409V18.4736C23.9409 19.0448 23.578 19.4478 23.2015 19.4478H22.5753C22.4649 19.4478 22.3753 19.5373 22.3753 19.6478V20.3522C22.3753 20.4627 22.4649 20.5522 22.5753 20.5522H23.3581C23.6575 20.5522 23.9604 20.8589 23.9604 21.3151C23.9604 21.7712 23.6575 22.0779 23.3581 22.0779H22.5753C22.4649 22.0779 22.3753 22.1674 22.3753 22.2779V22.9823C22.3753 23.0928 22.4649 23.1823 22.5753 23.1823H23.3581C23.6575 23.1823 23.9604 23.489 23.9604 23.9452C23.9604 24.4013 23.6575 24.708 23.3581 24.708H22.5753ZM18.9789 9.67868V8.90451H21.7491V9.67868H18.9789ZM17.275 14.5632L19.6981 10.7832H21.0689L23.492 14.5632H17.275Z" fill="#AAB3BB" stroke="#AAB3BB" stroke-width="0.4" stroke-linejoin="round"/>
</svg>
