<svg width="40" height="40" viewBox="0 0 40 40" fill="none" xmlns="http://www.w3.org/2000/svg">
<path d="M12.3065 23.7426L13.2062 23.9675L14.5437 24.3019L17.9315 25.1489L17.9324 25.1491C17.9848 25.1619 18.0388 25.1688 18.0937 25.1688C18.131 25.1688 18.1675 25.1656 18.2033 25.1597L18.2037 25.1596L24.4562 24.1176V30.8625H21.6094C21.24 30.8625 20.9406 31.1619 20.9406 31.5312C20.9406 31.9006 21.24 32.2 21.6094 32.2H25.125C25.4941 32.2 25.7937 31.9007 25.7937 31.5312V23.8947L26.6412 23.7534L26.6413 23.7534C26.8884 23.7121 27.0916 23.5363 27.1681 23.2979C27.2447 23.0592 27.1811 22.7979 27.0041 22.6209C27.0041 22.6209 27.0041 22.6209 27.0041 22.6209L25.7937 21.4104V8.46875C25.7937 8.09933 25.4941 7.8 25.125 7.8H13.875C13.5056 7.8 13.2062 8.09938 13.2062 8.46875V20.1234L11.8705 22.7946L11.8705 22.7948C11.7799 22.9763 11.7765 23.1888 11.8611 23.3731L11.8612 23.3734C11.9461 23.5575 12.1098 23.6932 12.3063 23.7426L12.3065 23.7426ZM18.8312 16.2375H14.5437V13.3562H18.8312V16.2375ZM20.1687 13.3562H24.4562V16.2375H20.1687V13.3562ZM14.5437 17.575H18.8312V20.2268L14.5437 19.6909V17.575ZM20.1687 17.575H24.4562V20.9299L20.1687 20.394V17.575ZM24.4562 12.0188H20.1687V9.1375H24.4562V12.0188ZM18.8312 9.1375V12.0188H14.5437V9.1375H18.8312ZM18.1209 23.8174L13.4397 22.6471L14.2616 21.0035L24.8144 22.3226L25.1394 22.6476L18.1209 23.8174Z" fill="#AAB3BB" stroke="#AAB3BB" stroke-width="0.4" stroke-linejoin="round"/>
<path d="M22.9812 28.7188V26.8438C22.9812 26.4743 22.6816 26.175 22.3125 26.175H16.6875C16.3181 26.175 16.0187 26.4744 16.0187 26.8438V28.7188C16.0187 29.0881 16.3181 29.3875 16.6875 29.3875H22.3125C22.6816 29.3875 22.9812 29.0882 22.9812 28.7188ZM21.6438 28.05H17.3563V27.5125H21.6438V28.05Z" fill="#AAB3BB" stroke="#AAB3BB" stroke-width="0.4" stroke-linejoin="round"/>
<path d="M19.5 32.2C19.8694 32.2 20.1688 31.9006 20.1688 31.5312C20.1688 31.1619 19.8694 30.8625 19.5 30.8625C19.1306 30.8625 18.8312 31.1619 18.8312 31.5312C18.8312 31.9006 19.1306 32.2 19.5 32.2Z" fill="#AAB3BB" stroke="#AAB3BB" stroke-width="0.4" stroke-linejoin="round"/>
</svg>
