<svg width="46" height="48" viewBox="0 0 46 48" fill="none" xmlns="http://www.w3.org/2000/svg">
<path d="M3.70564 16.5422L1.39798 13.7697C0.310204 12.4619 0.648312 10.3795 2.15271 9.12863C2.65586 8.71014 3.22781 8.45026 3.80568 8.32075C3.3498 7.64533 3.12651 6.84841 3.20206 6.02576C3.28902 5.08245 3.73814 4.229 4.46712 3.62319C5.96982 2.37318 8.21333 2.57779 9.46656 4.08135L10.4222 5.23011C10.6299 4.66395 10.9705 4.13872 11.4665 3.72613C12.2082 3.10935 13.1288 2.85032 14.0215 2.92204C14.2123 1.88044 14.8581 0.95105 15.8092 0.43299C16.6411 -0.0192577 17.601 -0.121351 18.5106 0.146116C19.4199 0.413584 20.1704 1.01982 20.6241 1.85217L21.3392 3.16377C21.6528 2.64867 22.0888 2.19937 22.6562 1.89056C24.3737 0.956534 26.5353 1.59103 27.4716 3.31016L31.1983 10.1491C32.5233 9.85425 33.9615 10.0724 35.1797 10.8794C35.609 11.1629 35.9015 11.5979 36.0036 12.1024C36.1062 12.607 36.0062 13.1208 35.7212 13.5499L34.2557 15.7609L34.3857 15.9988L37.2168 13.541C39.223 11.5156 42.5037 11.4991 44.5298 13.5043C44.8962 13.8658 45.0992 14.3493 45.1013 14.8644C45.1038 15.3795 44.9059 15.8643 44.5437 16.2296L42.4572 18.336C39.6705 21.1495 39.1707 22.0012 39.703 25.4361L40.3446 29.2465C40.5476 29.1419 40.7823 29.1161 41.0018 29.1811C41.2289 29.2478 41.4201 29.4017 41.5337 29.6097L45.8915 37.6072C46.0046 37.8151 46.0304 38.059 45.9637 38.286C45.897 38.5129 45.7425 38.704 45.5348 38.8175L28.8637 47.8916C28.7311 47.9633 28.5847 48 28.4369 48C28.3525 48 28.2672 47.9878 28.1845 47.9633C27.9574 47.8966 27.7666 47.7422 27.6531 47.5343L27.3314 46.9436L26.483 47.6494C26.3158 47.7882 26.1141 47.8557 25.9127 47.8557C25.6569 47.8557 25.4028 47.7465 25.2264 47.5343L19.3992 40.5333C19.2476 40.3514 19.1746 40.1173 19.1966 39.8815C19.2181 39.6461 19.3325 39.4288 19.514 39.2774L19.5938 39.2115L18.1092 37.4274C16.3106 37.4945 14.5631 36.7276 13.3939 35.3227L2.0037 21.638C0.886383 20.2952 1.07 18.2934 2.41441 17.1754C2.80148 16.8531 3.24554 16.6515 3.70564 16.5422ZM19.0564 2.7052C18.5917 1.8509 17.517 1.53281 16.6627 1.9994C16.0958 2.30737 15.753 2.90981 15.7517 3.55063C16.0101 3.7295 16.2557 3.93158 16.466 4.18471L25.7114 15.2918L25.8312 15.1374L19.0564 2.7052ZM25.9039 4.16361C25.4383 3.30805 24.364 2.99165 23.5092 3.45697C22.6545 3.92314 22.3375 4.99681 22.8035 5.8511L22.8714 5.9764L27.0262 13.6005L28.0114 12.3328C28.423 11.7122 28.9485 11.2123 29.5399 10.8355L25.9039 4.16361ZM41.1884 17.0814L43.2753 14.9745C43.323 14.9269 43.3225 14.8197 43.274 14.7724C42.6316 14.1363 41.8089 13.7789 40.8743 13.7924C39.9693 13.7971 39.1209 14.1536 38.4358 14.8416L34.7183 18.0723C34.514 18.2499 34.2405 18.3238 33.9746 18.2769C33.7082 18.2289 33.4782 18.0631 33.3494 17.826L33.1578 17.4745C31.834 19.6868 31.7661 20.7913 32.7589 23.5196L34.1274 27.1333C34.506 26.8351 35.0535 26.8865 35.3637 27.259L38.0521 30.4889L38.6857 30.1442L37.9411 25.7205C37.3117 21.6625 38.0677 20.2319 41.1884 17.0814ZM28.7932 45.8982L43.897 37.6772L40.4197 31.2959C40.3425 31.4056 40.2488 31.5044 40.1259 31.5714L39.3189 32.011L41.1913 34.2604C41.3429 34.4423 41.4155 34.6768 41.3939 34.9122C41.3724 35.1481 41.258 35.3653 41.0761 35.5164L28.7294 45.7814L28.7932 45.8982ZM26.0271 45.708L39.2488 34.7152L34.5988 29.1296C34.5444 29.252 34.4718 29.3671 34.3642 29.4566L21.5215 40.1338C21.4941 40.1565 21.4599 40.1667 21.4304 40.1861L26.0271 45.708ZM3.37555 20.4973L14.7653 34.1816C15.6525 35.2481 17.0126 35.7826 18.3929 35.6176C18.6968 35.5788 18.9927 35.7003 19.186 35.9323L20.9652 38.0704L32.6749 28.3352L31.0861 24.1397C29.6813 20.2808 30.1452 18.7313 32.5964 15.0353L34.2337 12.5644C34.2713 12.5078 34.2502 12.4028 34.1936 12.3652C33.4397 11.8653 32.5356 11.6894 31.6492 11.87C30.7623 12.0497 29.9991 12.5635 29.4605 13.3718L27.5944 15.7744C27.5927 15.7765 27.5914 15.7782 27.5902 15.7803L26.4399 17.2615C26.274 17.475 26.0204 17.6015 25.7502 17.6066C25.4931 17.5872 25.2221 17.4923 25.0491 17.2851L15.0941 5.32503C14.7927 4.96306 14.3685 4.73947 13.8987 4.69644C13.4247 4.65214 12.9705 4.796 12.6083 5.09679C11.8612 5.71821 11.7586 6.83196 12.3787 7.57952L12.3804 7.5812C12.3804 7.58163 12.3804 7.58205 12.3808 7.58247L17.479 13.7076C17.7943 14.0865 17.7428 14.6484 17.3642 14.9636C16.9856 15.2791 16.4233 15.2281 16.1076 14.8484L11.0085 8.72279C11.0068 8.7211 11.0064 8.719 11.0051 8.71731L8.09556 5.22167C7.47295 4.47327 6.3569 4.37117 5.60934 4.99386C5.24675 5.2955 5.02304 5.71948 4.97998 6.1886C4.93693 6.65772 5.0796 7.11546 5.38098 7.47785L6.7752 9.1531C6.80095 9.18137 6.83261 9.20162 6.85752 9.23157C6.87229 9.24929 6.87567 9.27123 6.88918 9.28979L15.3355 19.4384C15.6509 19.8172 15.5994 20.3791 15.2203 20.6943C15.0536 20.8331 14.8514 20.9006 14.65 20.9006C14.3947 20.9006 14.1406 20.7913 13.9641 20.5791L5.41897 10.312C4.94326 9.84118 3.99858 9.91374 3.29493 10.4993C2.55962 11.111 2.31944 12.0864 2.77067 12.6289L9.07653 20.2049L9.13478 20.2745C9.13521 20.2749 9.13521 20.2754 9.13605 20.2758L11.079 22.6108C11.3943 22.9897 11.3428 23.5516 10.9638 23.8663C10.797 24.0051 10.5949 24.0731 10.3935 24.0731C10.1381 24.0731 9.88403 23.9638 9.70758 23.7516L7.768 21.4216C7.768 21.4212 7.76716 21.4212 7.76674 21.4207L5.50719 18.7258C5.01797 18.139 4.14421 18.0576 3.55579 18.5461C2.96779 19.0351 2.88717 19.9104 3.37555 20.4973Z" fill="#F6AE42"/>
</svg>
