<svg width="16" height="16" viewBox="0 0 16 16" fill="none" xmlns="http://www.w3.org/2000/svg">
<path d="M15.7996 7.81264C16.0896 7.49365 16.0616 7.00474 15.737 6.72091L8.58642 0.464088C8.26185 0.180256 7.74149 0.186202 7.42376 0.477492L0.248845 7.0545C-0.0688875 7.34579 -0.0844821 7.83407 0.214318 8.14466L0.394204 8.332C0.692639 8.64259 1.17503 8.67962 1.47096 8.41446L2.00717 7.93426V14.9645C2.00717 15.3958 2.35667 15.745 2.78768 15.745H5.58449C6.0155 15.745 6.365 15.3958 6.365 14.9645V10.0462H9.93235V14.9645C9.92614 15.3955 10.2345 15.7447 10.6656 15.7447H13.6295C14.0605 15.7447 14.41 15.3955 14.41 14.9641V8.03326C14.41 8.03326 14.5581 8.16302 14.7408 8.32361C14.9232 8.48388 15.3063 8.35537 15.5963 8.03607L15.7996 7.81264Z" fill="#010002"/>
</svg>
