<svg width="40" height="40" viewBox="0 0 40 40" fill="none" xmlns="http://www.w3.org/2000/svg">
<rect y="3.05176e-05" width="40" height="40" rx="8" fill="#EDF2F5"/>
<path d="M25.5015 11.2746L25.5015 11.2747C25.8894 12.2966 25.7948 13.2558 25.1941 14.0216C24.7547 14.5818 24.7834 15.2852 24.9471 15.8869C25.1092 16.4829 25.3921 16.9317 25.3938 16.9344L25.3938 16.9344L25.3941 16.9348C25.5682 17.2043 25.4907 17.5637 25.2217 17.7377L25.2217 17.7378C25.1245 17.8006 25.015 17.8308 24.9068 17.8308C24.7169 17.8308 24.53 17.7375 24.4187 17.5654L24.4187 17.5654C24.3831 17.5103 23.9999 16.9059 23.7962 16.0919C23.5925 15.2778 23.5615 14.2212 24.2802 13.3048L24.2802 13.3048C24.6777 12.798 24.6078 12.1898 24.4049 11.6651C24.3047 11.4059 24.176 11.1788 24.0704 11.0145C24.0178 10.9327 23.9714 10.8672 23.938 10.8219C23.9213 10.7992 23.9079 10.7817 23.8985 10.7698C23.8896 10.7583 23.8846 10.7522 23.8842 10.7517L23.8842 10.7517L24.0386 10.6245L23.8849 10.7525C23.6801 10.5066 23.7124 10.141 23.9585 9.93529L25.5015 11.2746ZM25.5015 11.2746C25.2276 10.5529 24.8006 10.0371 24.7765 10.0083M25.5015 11.2746L24.7765 10.0083M24.7765 10.0083C24.5709 9.76219 24.2046 9.72954 23.9586 9.93524L24.7765 10.0083Z" fill="#AAB3BB" stroke="#AAB3BB" stroke-width="0.4" stroke-linejoin="round"/>
<path d="M28.0568 11.2746L28.0568 11.2747C28.4447 12.2966 28.3501 13.2558 27.7494 14.0216M28.0568 11.2746L27.7494 14.0216M28.0568 11.2746C27.7827 10.5527 27.3556 10.0368 27.3317 10.0083M28.0568 11.2746L27.3317 10.0083M27.7494 14.0216C27.31 14.5818 27.3387 15.2852 27.5024 15.8869C27.5833 16.1843 27.6946 16.446 27.7868 16.6349C27.8763 16.8182 27.9462 16.9298 27.9494 16.935L27.9496 16.9351L27.7814 17.0434M27.7494 14.0216L27.7814 17.0434M27.7814 17.0434L27.9494 16.9348M27.7814 17.0434L27.9494 16.9348M26.8353 13.3048L26.8353 13.3048C27.2337 12.797 27.1627 12.1873 26.959 11.662C26.8583 11.4025 26.7293 11.1754 26.6238 11.0116C26.5202 10.8508 26.4416 10.7543 26.4395 10.7517C26.4395 10.7517 26.4395 10.7517 26.4395 10.7517L26.5937 10.6244L26.4401 10.7524C26.2352 10.5064 26.268 10.1408 26.5137 9.93529L26.8353 13.3048ZM26.8353 13.3048C26.1166 14.2212 26.1477 15.2778 26.3515 16.0919C26.5552 16.9059 26.9384 17.5103 26.974 17.5654L26.974 17.5654M26.8353 13.3048L26.974 17.5654M26.974 17.5654C27.0852 17.7374 27.2721 17.8308 27.4619 17.8308C27.5702 17.8308 27.6796 17.8006 27.7768 17.7379L27.777 17.7378M26.974 17.5654L27.777 17.7378M27.777 17.7378C28.0462 17.5637 28.1235 17.2042 27.9494 16.9348M27.777 17.7378L27.9494 16.9348M27.3317 10.0083C27.1261 9.76212 26.7597 9.72959 26.5137 9.93528L27.3317 10.0083Z" fill="#AAB3BB" stroke="#AAB3BB" stroke-width="0.4" stroke-linejoin="round"/>
<path d="M10.9885 17.7418C11.0997 17.9138 11.2865 18.0073 11.4764 18.0073C11.5846 18.0073 11.6942 17.977 11.7913 17.9142C12.0606 17.7401 12.1379 17.3805 11.9635 17.1111L11.7957 17.2198L11.9638 17.1116C11.9638 17.1116 11.9638 17.1115 11.9637 17.1114C11.9605 17.1063 11.8905 16.9946 11.8011 16.8113C11.7089 16.6224 11.5976 16.3607 11.5167 16.0633C11.353 15.4617 11.3243 14.7582 11.7637 14.198L11.7637 14.198C12.3644 13.4322 12.4591 12.473 12.0712 11.4511L12.0712 11.451C11.7971 10.7294 11.3703 10.2135 11.3462 10.1847M10.9885 17.7418L11.1564 17.6332M10.9885 17.7418C10.9885 17.7418 10.9885 17.7418 10.9885 17.7418L11.1564 17.6332M10.9885 17.7418C10.9527 17.6865 10.5695 17.0822 10.3659 16.2683C10.1622 15.4541 10.1311 14.3976 10.8499 13.4812C11.2482 12.9734 11.1772 12.3637 10.9735 11.8384C10.8729 11.5789 10.7438 11.3518 10.6383 11.188C10.5363 11.0295 10.4585 10.9337 10.4546 10.9289C10.4545 10.9288 10.4545 10.9287 10.4545 10.9287M11.1564 17.6332C11.0953 17.5387 9.67651 15.3012 11.0073 13.6046C11.9332 12.4242 10.6216 10.8169 10.6082 10.8008M11.1564 17.6332L11.8842 11.522C11.6214 10.8299 11.2101 10.3337 11.1927 10.313M10.4545 10.9287C10.2497 10.6827 10.2825 10.3172 10.5282 10.1117L10.5282 10.1117C10.7743 9.90599 11.1405 9.93857 11.3462 10.1847M10.4545 10.9287L10.6082 10.8008M10.4545 10.9287C10.4545 10.9288 10.4545 10.9288 10.4545 10.9288L10.6082 10.8008M11.3462 10.1847L11.1927 10.313M11.3462 10.1847C11.3462 10.1847 11.3461 10.1846 11.3461 10.1846L11.1927 10.313M11.1927 10.313C11.058 10.1517 10.8179 10.1302 10.6565 10.2651C10.4954 10.3998 10.4739 10.6395 10.6082 10.8008" fill="#AAB3BB" stroke="#AAB3BB" stroke-width="0.4" stroke-linejoin="round"/>
<path d="M13.0099 10.9287C13.0099 10.9287 13.0099 10.9288 13.0101 10.9289C13.0139 10.9337 13.0917 11.0296 13.1937 11.188C13.2992 11.3518 13.4283 11.5789 13.529 11.8384C13.7326 12.3637 13.8036 12.9734 13.4053 13.4812L13.4053 13.4812C12.6865 14.3976 12.7175 15.4541 12.9212 16.2682C13.1249 17.0823 13.5081 17.6866 13.5436 17.7417L13.5437 17.7418C13.6549 17.9138 13.8418 18.0073 14.0317 18.0073C14.1399 18.0073 14.2493 17.977 14.3465 17.9143L14.3467 17.9142C14.6159 17.7401 14.6932 17.3805 14.5189 17.1111L14.351 17.2198L14.5192 17.1116C14.5192 17.1116 14.5191 17.1115 14.519 17.1114C14.5158 17.1063 14.4459 16.9946 14.3564 16.8113C14.2642 16.6224 14.1529 16.3607 14.072 16.0633C13.9084 15.4617 13.8796 14.7582 14.3191 14.198L14.3191 14.198C14.9198 13.4322 15.0144 12.473 14.6266 11.4511L14.6266 11.4511C14.3527 10.7294 13.9258 10.2135 13.9017 10.1847M13.0099 10.9287C12.8051 10.6827 12.8379 10.3172 13.0837 10.1117L13.0837 10.1117C13.3298 9.90599 13.696 9.93857 13.9017 10.1847M13.0099 10.9287L13.1637 10.8008M13.0099 10.9287C13.01 10.9288 13.01 10.9288 13.01 10.9288L13.1637 10.8008M13.9017 10.1847L13.7482 10.313M13.9017 10.1847C13.9016 10.1847 13.9016 10.1846 13.9016 10.1846L13.7482 10.313M13.7482 10.313C13.7656 10.3337 14.1769 10.8299 14.4396 11.522L13.7116 17.6332C13.6506 17.5387 12.2318 15.3012 13.5626 13.6046C14.4886 12.4242 13.1771 10.8169 13.1637 10.8008M13.7482 10.313C13.6134 10.1517 13.3734 10.1302 13.2119 10.2651C13.0509 10.3998 13.0293 10.6395 13.1637 10.8008" fill="#AAB3BB" stroke="#AAB3BB" stroke-width="0.4" stroke-linejoin="round"/>
<path d="M31.221 28.2596V28.2595C31.2208 27.4523 30.5644 26.7959 29.7572 26.7959H29.1399C28.8589 22.0955 25.1913 18.2937 20.5498 17.8016V17.7046C21.0287 17.3748 21.3219 16.8312 21.3219 16.232C21.3219 15.2426 20.5171 14.4379 19.5277 14.4379H19.5277H19.5277H19.5276H19.5276H19.5276H19.5275H19.5275H19.5275H19.5274H19.5274H19.5274H19.5273H19.5273H19.5272H19.5272H19.5272H19.5271H19.5271H19.527H19.527H19.527H19.5269H19.5269H19.5268H19.5268H19.5267H19.5267H19.5267H19.5266H19.5266H19.5265H19.5265H19.5264H19.5264H19.5263H19.5263H19.5262H19.5262H19.5261H19.5261H19.5261H19.526H19.526H19.5259H19.5259H19.5258H19.5258H19.5257H19.5257H19.5256H19.5255H19.5255H19.5254H19.5254H19.5253H19.5253H19.5252H19.5252H19.5251H19.5251H19.525H19.525H19.5249H19.5249H19.5248H19.5247H19.5247H19.5246H19.5246H19.5245H19.5245H19.5244H19.5243H19.5243H19.5242H19.5242H19.5241H19.524H19.524H19.5239H19.5239H19.5238H19.5237H19.5237H19.5236H19.5236H19.5235H19.5234H19.5234H19.5233H19.5232H19.5232H19.5231H19.5231H19.523H19.5229H19.5229H19.5228H19.5227H19.5227H19.5226H19.5225H19.5225H19.5224H19.5223H19.5223H19.5222H19.5221H19.5221H19.522H19.5219H19.5219H19.5218H19.5217H19.5217H19.5216H19.5215H19.5215H19.5214H19.5213H19.5212H19.5212H19.5211H19.521H19.521H19.5209H19.5208H19.5208H19.5207H19.5206H19.5205H19.5205H19.5204H19.5203H19.5202H19.5202H19.5201H19.52H19.52H19.5199H19.5198H19.5197H19.5197H19.5196H19.5195H19.5194H19.5194H19.5193H19.5192H19.5191H19.5191H19.519H19.5189H19.5188H19.5188H19.5187H19.5186H19.5185H19.5185H19.5184H19.5183H19.5182H19.5181H19.5181H19.518H19.5179H19.5178H19.5178H19.5177H19.5176H19.5175H19.5174H19.5174H19.5173H19.5172H19.5171H19.517H19.517H19.5169H19.5168H19.5167H19.5167H19.5166H19.5165H19.5164H19.5163H19.5163H19.5162H19.5161H19.516H19.5159H19.5158H19.5158H19.5157H19.5156H19.5155H19.5154H19.5154H19.5153H19.5152H19.5151H19.515H19.515H19.5149H19.5148H19.5147H19.5146H19.5145H19.5145H19.5144H19.5143H19.5142H19.5141H19.5141H19.514H19.5139H19.5138H19.5137H19.5136H19.5136H19.5135H19.5134H19.5133H19.5132H19.5131H19.5131H19.513H19.5129H19.5128H19.5127H19.5126H19.5126H19.5125H19.5124H19.5123H19.5122H19.5121H19.5121H19.512H19.5119H19.5118H19.5117H19.5116H19.5116H19.5115H19.5114H19.5113H19.5112H19.5111H19.511H19.511H19.5109H19.5108H19.5107H19.5106H19.5105H19.5105H19.5104H19.5103H19.5102H19.5101H19.51H19.51H19.5099H19.5098H19.5097H19.5096H19.5095H19.5095H19.5094H19.5093H19.5092H19.5091H19.509H19.509H19.5089H19.5088H19.5087H19.5086H19.5085H19.5084H19.5084H19.5083H19.5082H19.5081H19.508H19.5079H19.5079H19.5078H19.5077H19.5076H19.5075H19.5075H19.5074H19.5073H19.5072H19.5071H19.507H19.507H19.5069H19.5068H19.5067H19.5066H19.5065H19.5065H19.5064H19.5063H19.5062H19.5061H19.5061H19.506H19.5059H19.5058H19.5057H19.5056H19.5056H19.5055H19.5054H19.5053H19.5052H19.5052H19.5051H19.505H19.5049H19.5048H19.5048H19.5047H19.5046H19.5045H19.5044H19.5044H19.5043H19.5042H19.5041H19.504H19.504H19.5039H19.5038H19.5037H19.5036H19.5036H19.5035H19.5034H19.5033H19.5033H19.5032H19.5031H19.503H19.5029H19.5029H19.5028H19.5027H19.5026H19.5026H19.5025H19.5024H19.5023H19.5023H19.5022H19.5021H19.502H19.502H19.5019H19.5018H19.5017H19.5017H19.5016H19.5015H19.5014H19.5014H19.5013H19.5012H19.5011H19.5011H19.501H19.5009H19.5008H19.5008H19.5007H19.5006H19.5006H19.5005H19.5004H19.5003H19.5003H19.5002H19.5001H19.5001H19.5H19.4999H19.4998H19.4998H19.4997H19.4996H19.4996H19.4995H19.4994H19.4994H19.4993H19.4992H19.4992H19.4991H19.499H19.4989H19.4989H19.4988H19.4987H19.4987H19.4986H19.4986H19.4985H19.4984H19.4984H19.4983H19.4982H19.4982H19.4981H19.498H19.498H19.4979H19.4978H19.4978H19.4977H19.4977H19.4976H19.4975H19.4975H19.4974H19.4973H19.4973H19.4972H19.4972H19.4971H19.497H19.497H19.4969H19.4969H19.4968H19.4967H19.4967H19.4966H19.4966H19.4965H19.4965H19.4964H19.4963H19.4963H19.4962H19.4962H19.4961H19.4961H19.496H19.496H19.4959H19.4959H19.4958H19.4957H19.4957H19.4956H19.4956H19.4955H19.4955H19.4954H19.4954H19.4953H19.4953H19.4952H19.4952H19.4951H19.4951H19.495H19.495H19.4949H19.4949H19.4948H19.4948H19.4948H19.4947H19.4947H19.4946H19.4946H19.4945H19.4945H19.4944H19.4944H19.4943H19.4943H19.4943H19.4942H19.4942H19.4941H19.4941H19.4941H19.494H19.494H19.4939H19.4939H19.4939H19.4938H19.4938H19.4937H19.4937H19.4937H19.4936H19.4936H19.4936H19.4935H19.4935H19.4934H19.4934H19.4934H19.4933C18.5039 14.4379 17.6992 15.2426 17.6992 16.232C17.6992 16.8312 17.9925 17.3749 18.4712 17.7046V17.8016C13.8298 18.2937 10.1621 22.0954 9.88104 26.7959H9.26379C8.45648 26.7959 7.8 27.4523 7.8 28.2596V28.7356C7.8 29.5432 8.45636 30.2 9.26368 30.2H29.7573C30.5647 30.2 31.221 29.5432 31.221 28.7356V28.2596ZM19.7568 16.8192L19.7568 16.8192C19.6572 16.8582 19.573 16.9228 19.5103 17.0036C19.4476 16.9229 19.3634 16.8583 19.2641 16.8192L19.2639 16.8192C19.0173 16.7223 18.8603 16.4921 18.8603 16.232C18.8603 15.8834 19.1444 15.5993 19.4931 15.5993H19.4932H19.4932H19.4932H19.4933H19.4933H19.4933H19.4934H19.4934H19.4934H19.4935H19.4935H19.4936H19.4936H19.4936H19.4937H19.4937H19.4938H19.4938H19.4938H19.4939H19.4939H19.494H19.494H19.494H19.4941H19.4941H19.4942H19.4942H19.4943H19.4943H19.4944H19.4944H19.4945H19.4945H19.4945H19.4946H19.4946H19.4947H19.4947H19.4948H19.4948H19.4949H19.4949H19.495H19.495H19.4951H19.4951H19.4952H19.4952H19.4953H19.4953H19.4954H19.4954H19.4955H19.4956H19.4956H19.4957H19.4957H19.4958H19.4958H19.4959H19.4959H19.496H19.496H19.4961H19.4962H19.4962H19.4963H19.4963H19.4964H19.4964H19.4965H19.4966H19.4966H19.4967H19.4967H19.4968H19.4969H19.4969H19.497H19.497H19.4971H19.4972H19.4972H19.4973H19.4973H19.4974H19.4975H19.4975H19.4976H19.4977H19.4977H19.4978H19.4978H19.4979H19.498H19.498H19.4981H19.4982H19.4982H19.4983H19.4984H19.4984H19.4985H19.4986H19.4986H19.4987H19.4988H19.4988H19.4989H19.499H19.499H19.4991H19.4992H19.4992H19.4993H19.4994H19.4995H19.4995H19.4996H19.4997H19.4997H19.4998H19.4999H19.4999H19.5H19.5001H19.5002H19.5002H19.5003H19.5004H19.5004H19.5005H19.5006H19.5007H19.5007H19.5008H19.5009H19.501H19.501H19.5011H19.5012H19.5013H19.5013H19.5014H19.5015H19.5015H19.5016H19.5017H19.5018H19.5019H19.5019H19.502H19.5021H19.5022H19.5022H19.5023H19.5024H19.5025H19.5025H19.5026H19.5027H19.5028H19.5028H19.5029H19.503H19.5031H19.5032H19.5032H19.5033H19.5034H19.5035H19.5035H19.5036H19.5037H19.5038H19.5039H19.5039H19.504H19.5041H19.5042H19.5043H19.5043H19.5044H19.5045H19.5046H19.5047H19.5047H19.5048H19.5049H19.505H19.5051H19.5051H19.5052H19.5053H19.5054H19.5055H19.5055H19.5056H19.5057H19.5058H19.5059H19.506H19.506H19.5061H19.5062H19.5063H19.5064H19.5064H19.5065H19.5066H19.5067H19.5068H19.5069H19.5069H19.507H19.5071H19.5072H19.5073H19.5074H19.5074H19.5075H19.5076H19.5077H19.5078H19.5079H19.5079H19.508H19.5081H19.5082H19.5083H19.5084H19.5084H19.5085H19.5086H19.5087H19.5088H19.5089H19.5089H19.509H19.5091H19.5092H19.5093H19.5094H19.5094H19.5095H19.5096H19.5097H19.5098H19.5099H19.5099H19.51H19.5101H19.5102H19.5103H19.5104H19.5104H19.5105H19.5106H19.5107H19.5108H19.5109H19.5109H19.511H19.5111H19.5112H19.5113H19.5114H19.5114H19.5115H19.5116H19.5117H19.5118H19.5119H19.512H19.512H19.5121H19.5122H19.5123H19.5124H19.5125H19.5125H19.5126H19.5127H19.5128H19.5129H19.5129H19.513H19.5131H19.5132H19.5133H19.5134H19.5134H19.5135H19.5136H19.5137H19.5138H19.5139H19.5139H19.514H19.5141H19.5142H19.5143H19.5144H19.5144H19.5145H19.5146H19.5147H19.5148H19.5148H19.5149H19.515H19.5151H19.5152H19.5152H19.5153H19.5154H19.5155H19.5156H19.5157H19.5157H19.5158H19.5159H19.516H19.5161H19.5161H19.5162H19.5163H19.5164H19.5165H19.5165H19.5166H19.5167H19.5168H19.5169H19.5169H19.517H19.5171H19.5172H19.5172H19.5173H19.5174H19.5175H19.5176H19.5176H19.5177H19.5178H19.5179H19.5179H19.518H19.5181H19.5182H19.5182H19.5183H19.5184H19.5185H19.5186H19.5186H19.5187H19.5188H19.5189H19.5189H19.519H19.5191H19.5192H19.5192H19.5193H19.5194H19.5195H19.5195H19.5196H19.5197H19.5197H19.5198H19.5199H19.52H19.52H19.5201H19.5202H19.5203H19.5203H19.5204H19.5205H19.5205H19.5206H19.5207H19.5208H19.5208H19.5209H19.521H19.521H19.5211H19.5212H19.5212H19.5213H19.5214H19.5215H19.5215H19.5216H19.5217H19.5217H19.5218H19.5219H19.5219H19.522H19.5221H19.5221H19.5222H19.5223H19.5223H19.5224H19.5225H19.5225H19.5226H19.5226H19.5227H19.5228H19.5228H19.5229H19.523H19.523H19.5231H19.5232H19.5232H19.5233H19.5233H19.5234H19.5235H19.5235H19.5236H19.5236H19.5237H19.5238H19.5238H19.5239H19.5239H19.524H19.5241H19.5241H19.5242H19.5242H19.5243H19.5243H19.5244H19.5245H19.5245H19.5246H19.5246H19.5247H19.5247H19.5248H19.5249H19.5249H19.525H19.525H19.5251H19.5251H19.5252H19.5252H19.5253H19.5253H19.5254H19.5254H19.5255H19.5255H19.5256H19.5256H19.5257H19.5257H19.5258H19.5258H19.5259H19.5259H19.526H19.526H19.5261H19.5261H19.5262H19.5262H19.5262H19.5263H19.5263H19.5264H19.5264H19.5265H19.5265H19.5266H19.5266H19.5266H19.5267H19.5267H19.5268H19.5268H19.5269H19.5269H19.5269H19.527H19.527H19.5271H19.5271H19.5271H19.5272H19.5272H19.5272H19.5273H19.5273H19.5273H19.5274H19.5274H19.5275H19.5275H19.5275C19.8763 15.5993 20.1603 15.8834 20.1603 16.232C20.1603 16.4921 20.0033 16.7224 19.7568 16.8192ZM19.5623 18.9088C24.0208 18.9268 27.6772 22.4082 27.9756 26.7964H26.0335C25.7127 26.7964 25.4528 27.0566 25.4528 27.3771C25.4528 27.6979 25.7128 27.9578 26.0335 27.9578H26.0335L28.9734 27.9573H28.9734H29.7571C29.9237 27.9573 30.0594 28.093 30.0594 28.2594V28.7355C30.0594 28.7372 30.0594 28.739 30.0594 28.7408C30.0566 28.9055 29.9216 29.0385 29.7572 29.0385H9.26356C9.09731 29.0385 8.96127 28.9027 8.96127 28.7355V28.2594C8.96127 28.093 9.09704 27.9573 9.26356 27.9573H9.88296C9.8867 27.9575 9.8928 27.9578 9.89975 27.9578H23.5711C23.8917 27.9578 24.1518 27.6979 24.1518 27.3771C24.1518 27.0565 23.8917 26.7964 23.5711 26.7964H11.0451C11.3435 22.4083 15.0001 18.9268 19.4585 18.9088H19.5623Z" fill="#AAB3BB" stroke="#AAB3BB" stroke-width="0.4" stroke-linejoin="round"/>
</svg>
