<svg width="18" height="15" viewBox="0 0 18 15" fill="none" xmlns="http://www.w3.org/2000/svg">
<g clip-path="url(#clip0)">
<path d="M12.0165 9.36224C13.0174 9.36224 13.8224 8.56224 13.8224 7.57653C13.8224 6.59081 13.0174 5.79081 12.0165 5.79081C11.0156 5.79081 10.2033 6.59081 10.2033 7.57653C10.2033 8.56224 11.0156 9.36224 12.0165 9.36224ZM6.57692 8.64795C7.78088 8.64795 8.74549 7.69081 8.74549 6.5051C8.74549 5.31939 7.78088 4.36224 6.57692 4.36224C5.37297 4.36224 4.4011 5.31939 4.4011 6.5051C4.4011 7.69081 5.37297 8.64795 6.57692 8.64795ZM12.0165 10.7908C10.6892 10.7908 8.02747 11.448 8.02747 12.7551V14.3622H16.0055V12.7551C16.0055 11.448 13.3437 10.7908 12.0165 10.7908ZM6.57692 10.0765C4.88703 10.0765 1.5 10.9122 1.5 12.5765V14.3622H6.57692V12.7551C6.57692 12.148 6.81626 11.0837 8.29582 10.2765C7.66483 10.148 7.0556 10.0765 6.57692 10.0765Z" fill="#76879A"/>
</g>
<defs>
<clipPath id="clip0">
<rect width="18" height="14" fill="white" transform="translate(0 0.445587)"/>
</clipPath>
</defs>
</svg>
