<svg width="23" height="18" viewBox="0 0 23 18" fill="none" xmlns="http://www.w3.org/2000/svg">
<path d="M22.1493 2.13095C21.3344 2.49272 20.4586 2.73636 19.5394 2.84619C20.478 2.28415 21.1987 1.39356 21.5374 0.33224C20.6598 0.852748 19.687 1.23113 18.6516 1.43509C17.8237 0.551887 16.6415 0 15.3347 0C12.4008 0 10.245 2.73728 10.9076 5.57886C7.13208 5.38966 3.78384 3.5808 1.54215 0.831522C0.35162 2.87387 0.924733 5.54563 2.9477 6.89858C2.20386 6.87459 1.50246 6.67063 0.890586 6.33009C0.840751 8.43519 2.34967 10.4046 4.53507 10.843C3.89551 11.0165 3.19504 11.0571 2.48257 10.9205C3.0603 12.7257 4.7381 14.039 6.72785 14.0759C4.81747 15.5737 2.41058 16.2428 0 15.9586C2.01097 17.2478 4.40033 18 6.96596 18C15.403 18 20.1697 10.8744 19.8818 4.48339C20.7696 3.84198 21.5402 3.04184 22.1493 2.13095Z" fill="black"/>
</svg>
